<?xml version="1.0" standalone="no"?><!DOCTYPE svg PUBLIC "-//W3C//DTD SVG 1.1//EN" "http://www.w3.org/Graphics/SVG/1.1/DTD/svg11.dtd"><svg t="1513309352487" class="icon" style="" viewBox="0 0 1024 1024" version="1.1" xmlns="http://www.w3.org/2000/svg" p-id="3396" xmlns:xlink="http://www.w3.org/1999/xlink" width="200" height="200"><defs><style type="text/css"></style></defs>
<path d="M464.4864 955.733333c-244.667733 0-443.733333-199.0656-443.733333-443.733333s199.0656-443.733333 443.733333-443.733333c244.6336 0 443.733333 199.0656 443.733333 443.733333s-199.099733 443.733333-443.733333 443.733333z m0-853.333333c-225.860267 0-409.6 183.739733-409.6 409.6s183.739733 409.6 409.6 409.6 409.6-183.739733 409.6-409.6-183.739733-409.6-409.6-409.6z" p-id="3398"></path>
<path d="M464.4864 529.066667a17.032533 17.032533 0 0 1-11.9808-29.184l234.666667-232.004267a17.078044 17.078044 0 0 1 23.995733 24.2688L476.501333 524.151467a17.123556 17.123556 0 0 1-12.014933 4.9152z"></path>
<path d="M994.7136 551.1168l-98.542933-73.386667c-0.273067-0.2048-0.580267-0.2048-0.8192-0.4096-1.024-0.682667-2.1504-1.092267-3.2768-1.536-0.955733-0.375467-1.877333-0.785067-2.8672-0.989866-1.058133-0.2048-2.1504-0.136533-3.2768-0.136534-1.092267 0-2.1504-0.034133-3.242667 0.136534-0.955733 0.2048-1.877333 0.6144-2.833067 0.989866a18.306844 18.306844 0 0 0-3.310933 1.570134c-0.273067 0.170667-0.580267 0.2048-0.785067 0.375466l-98.542933 73.386667a17.066667 17.066667 0 1 0 20.3776 27.374933l88.337067-65.8432 88.337066 65.8432c3.072 2.2528 6.621867 3.3792 10.205867 3.3792 5.188267 0 10.3424-2.3552 13.687467-6.8608a17.055289 17.055289 0 0 0-3.447467-23.893333z" p-id="3399"></path></svg>